<mxfile host="app.diagrams.net" modified="2023-09-21T06:53:47.321Z" agent="Mozilla/5.0 (Windows NT 10.0; Win64; x64) AppleWebKit/537.36 (KHTML, like Gecko) Chrome/115.0.0.0 Safari/537.36" etag="AKEQ1aJ2I2iIXs8w-O82" version="21.8.0" type="github">
  <diagram name="페이지-1" id="OhTuIpEOJRLCnRKokTvh">
    <mxGraphModel dx="1366" dy="752" grid="1" gridSize="10" guides="1" tooltips="1" connect="1" arrows="1" fold="1" page="1" pageScale="1" pageWidth="2339" pageHeight="3300" math="0" shadow="0">
      <root>
        <mxCell id="0" />
        <mxCell id="1" parent="0" />
        <mxCell id="WoqD4ugwn562ZOJdp5BG-16" style="edgeStyle=orthogonalEdgeStyle;rounded=0;orthogonalLoop=1;jettySize=auto;html=1;entryX=0.5;entryY=0;entryDx=0;entryDy=0;endArrow=block;endFill=0;" edge="1" parent="1" source="WoqD4ugwn562ZOJdp5BG-1" target="WoqD4ugwn562ZOJdp5BG-5">
          <mxGeometry relative="1" as="geometry" />
        </mxCell>
        <mxCell id="WoqD4ugwn562ZOJdp5BG-1" value="member" style="swimlane;fontStyle=1;align=center;verticalAlign=top;childLayout=stackLayout;horizontal=1;startSize=26;horizontalStack=0;resizeParent=1;resizeParentMax=0;resizeLast=0;collapsible=1;marginBottom=0;whiteSpace=wrap;html=1;" vertex="1" parent="1">
          <mxGeometry x="680" y="1220" width="290" height="268" as="geometry" />
        </mxCell>
        <mxCell id="WoqD4ugwn562ZOJdp5BG-2" value="+ id: integer" style="text;strokeColor=none;fillColor=none;align=left;verticalAlign=top;spacingLeft=4;spacingRight=4;overflow=hidden;rotatable=0;points=[[0,0.5],[1,0.5]];portConstraint=eastwest;whiteSpace=wrap;html=1;" vertex="1" parent="WoqD4ugwn562ZOJdp5BG-1">
          <mxGeometry y="26" width="290" height="74" as="geometry" />
        </mxCell>
        <mxCell id="WoqD4ugwn562ZOJdp5BG-3" value="" style="line;strokeWidth=1;fillColor=none;align=left;verticalAlign=middle;spacingTop=-1;spacingLeft=3;spacingRight=3;rotatable=0;labelPosition=right;points=[];portConstraint=eastwest;strokeColor=inherit;" vertex="1" parent="WoqD4ugwn562ZOJdp5BG-1">
          <mxGeometry y="100" width="290" height="8" as="geometry" />
        </mxCell>
        <mxCell id="WoqD4ugwn562ZOJdp5BG-4" value="+ checkout(): bool&lt;br&gt;+ return(): bool&lt;br&gt;+ reserve(): bool" style="text;strokeColor=none;fillColor=none;align=left;verticalAlign=top;spacingLeft=4;spacingRight=4;overflow=hidden;rotatable=0;points=[[0,0.5],[1,0.5]];portConstraint=eastwest;whiteSpace=wrap;html=1;" vertex="1" parent="WoqD4ugwn562ZOJdp5BG-1">
          <mxGeometry y="108" width="290" height="160" as="geometry" />
        </mxCell>
        <mxCell id="WoqD4ugwn562ZOJdp5BG-5" value="student" style="swimlane;fontStyle=1;align=center;verticalAlign=top;childLayout=stackLayout;horizontal=1;startSize=26;horizontalStack=0;resizeParent=1;resizeParentMax=0;resizeLast=0;collapsible=1;marginBottom=0;whiteSpace=wrap;html=1;" vertex="1" parent="1">
          <mxGeometry x="1280" y="1450" width="290" height="148" as="geometry" />
        </mxCell>
        <mxCell id="WoqD4ugwn562ZOJdp5BG-6" value="+ id: integer&lt;br&gt;+ name: string&lt;br&gt;+ age: integer&lt;br&gt;+ year: date&lt;br&gt;+ dept: string&lt;br&gt;+ phone: string" style="text;strokeColor=none;fillColor=none;align=left;verticalAlign=top;spacingLeft=4;spacingRight=4;overflow=hidden;rotatable=0;points=[[0,0.5],[1,0.5]];portConstraint=eastwest;whiteSpace=wrap;html=1;" vertex="1" parent="WoqD4ugwn562ZOJdp5BG-5">
          <mxGeometry y="26" width="290" height="114" as="geometry" />
        </mxCell>
        <mxCell id="WoqD4ugwn562ZOJdp5BG-7" value="" style="line;strokeWidth=1;fillColor=none;align=left;verticalAlign=middle;spacingTop=-1;spacingLeft=3;spacingRight=3;rotatable=0;labelPosition=right;points=[];portConstraint=eastwest;strokeColor=inherit;" vertex="1" parent="WoqD4ugwn562ZOJdp5BG-5">
          <mxGeometry y="140" width="290" height="8" as="geometry" />
        </mxCell>
        <mxCell id="WoqD4ugwn562ZOJdp5BG-17" style="edgeStyle=orthogonalEdgeStyle;rounded=0;orthogonalLoop=1;jettySize=auto;html=1;entryX=0.5;entryY=1;entryDx=0;entryDy=0;endArrow=block;endFill=0;" edge="1" parent="1" source="WoqD4ugwn562ZOJdp5BG-9" target="WoqD4ugwn562ZOJdp5BG-5">
          <mxGeometry relative="1" as="geometry" />
        </mxCell>
        <mxCell id="WoqD4ugwn562ZOJdp5BG-9" value="assistent" style="swimlane;fontStyle=1;align=center;verticalAlign=top;childLayout=stackLayout;horizontal=1;startSize=26;horizontalStack=0;resizeParent=1;resizeParentMax=0;resizeLast=0;collapsible=1;marginBottom=0;whiteSpace=wrap;html=1;" vertex="1" parent="1">
          <mxGeometry x="680" y="1700" width="290" height="160" as="geometry" />
        </mxCell>
        <mxCell id="WoqD4ugwn562ZOJdp5BG-10" value="+ id: integer" style="text;strokeColor=none;fillColor=none;align=left;verticalAlign=top;spacingLeft=4;spacingRight=4;overflow=hidden;rotatable=0;points=[[0,0.5],[1,0.5]];portConstraint=eastwest;whiteSpace=wrap;html=1;" vertex="1" parent="WoqD4ugwn562ZOJdp5BG-9">
          <mxGeometry y="26" width="290" height="74" as="geometry" />
        </mxCell>
        <mxCell id="WoqD4ugwn562ZOJdp5BG-11" value="" style="line;strokeWidth=1;fillColor=none;align=left;verticalAlign=middle;spacingTop=-1;spacingLeft=3;spacingRight=3;rotatable=0;labelPosition=right;points=[];portConstraint=eastwest;strokeColor=inherit;" vertex="1" parent="WoqD4ugwn562ZOJdp5BG-9">
          <mxGeometry y="100" width="290" height="8" as="geometry" />
        </mxCell>
        <mxCell id="WoqD4ugwn562ZOJdp5BG-12" value="+ reserve(id): void" style="text;strokeColor=none;fillColor=none;align=left;verticalAlign=top;spacingLeft=4;spacingRight=4;overflow=hidden;rotatable=0;points=[[0,0.5],[1,0.5]];portConstraint=eastwest;whiteSpace=wrap;html=1;" vertex="1" parent="WoqD4ugwn562ZOJdp5BG-9">
          <mxGeometry y="108" width="290" height="52" as="geometry" />
        </mxCell>
        <mxCell id="WoqD4ugwn562ZOJdp5BG-18" value="is a" style="text;html=1;align=center;verticalAlign=middle;resizable=0;points=[];autosize=1;strokeColor=none;fillColor=none;" vertex="1" parent="1">
          <mxGeometry x="1160" y="1328" width="40" height="30" as="geometry" />
        </mxCell>
        <mxCell id="WoqD4ugwn562ZOJdp5BG-19" value="is a" style="text;html=1;align=center;verticalAlign=middle;resizable=0;points=[];autosize=1;strokeColor=none;fillColor=none;" vertex="1" parent="1">
          <mxGeometry x="1160" y="1750" width="40" height="30" as="geometry" />
        </mxCell>
      </root>
    </mxGraphModel>
  </diagram>
</mxfile>
